<svg version="1.0" xmlns="http://www.w3.org/2000/svg"
 width="40" height="40" viewBox="0 0 240 240"
 preserveAspectRatio="xMidYMid meet">
<g transform="translate(0.000000,147.000000) scale(0.100000,-0.100000)"
fill="#FF6600" stroke="none">
<path d="M340 1315 c-17 -20 -6 -43 22 -47 21 -3 23 -7 21 -58 -1 -30 -5 -79
-8 -109 l-7 -54 -99 6 c-87 5 -100 4 -108 -11 -4 -9 -11 -66 -15 -127 -4 -60
-15 -204 -26 -320 -16 -174 -24 -349 -21 -472 l1 -23 910 0 910 0 0 173 c1
124 5 183 15 212 8 22 15 52 15 66 0 38 -35 77 -75 85 -28 5 -44 18 -80 69
-59 83 -151 165 -233 208 -79 42 -199 77 -260 77 -37 0 -55 9 -125 59 -223
161 -458 246 -763 276 -48 4 -64 2 -74 -10z m153 -150 c14 -44 28 -94 31 -110
l7 -31 -43 4 c-24 2 -47 7 -51 12 -5 4 -3 55 4 114 6 59 15 104 19 99 5 -4 19
-44 33 -88z m185 54 c50 -12 92 -25 92 -30 0 -10 -155 -149 -167 -149 -10 0
-73 197 -65 205 6 5 10 4 140 -26z m152 -86 c0 -5 7 -48 16 -97 8 -48 13 -91
10 -93 -9 -9 -186 51 -186 63 0 6 14 22 32 35 17 13 49 41 72 62 39 36 56 45
56 30z m186 -52 c133 -79 139 -86 76 -100 -27 -5 -73 -20 -102 -31 -29 -12
-56 -17 -60 -13 -6 6 -40 175 -40 197 0 16 34 1 126 -53z m-565 -110 l26 -9
-23 -139 c-57 -346 -83 -496 -88 -501 -3 -3 -8 1 -10 9 -8 25 -126 628 -126
645 0 15 11 16 98 11 54 -3 109 -10 123 -16z m254 -51 c69 -19 110 -34 124
-46 1 -1 -26 -30 -62 -64 -36 -34 -82 -86 -102 -116 -21 -31 -39 -53 -42 -50
-8 8 -42 289 -36 299 2 4 12 6 21 3 10 -3 53 -14 97 -26z m684 -6 c121 -27
255 -111 331 -207 22 -27 40 -53 40 -57 0 -11 -182 -18 -200 -8 -8 4 -127 60
-265 123 -137 64 -253 119 -258 124 -21 21 151 53 238 44 28 -2 79 -11 114
-19z m-839 -223 c19 -145 21 -185 12 -235 -6 -34 -14 -114 -18 -178 l-7 -118
-69 0 c-66 0 -68 1 -63 23 10 48 23 119 102 589 9 54 18 96 19 95 1 -1 12 -80
24 -176z m452 140 c91 -41 152 -69 243 -111 44 -20 128 -59 188 -86 76 -34
107 -53 107 -66 0 -9 -4 -19 -9 -23 -6 -3 -74 24 -153 61 -79 36 -168 78 -198
92 -262 119 -286 133 -266 148 24 17 13 19 88 -15z m-118 -64 c16 -11 15 -15
-13 -41 -23 -22 -35 -27 -56 -22 -37 9 -43 35 -14 57 28 22 58 24 83 6z m-619
-292 c31 -154 58 -288 61 -297 5 -16 -3 -18 -80 -18 l-86 0 0 98 c0 101 27
476 37 502 7 20 5 30 68 -285z m755 225 c-1 -12 -50 -60 -63 -60 -7 0 -22 6
-33 14 -18 14 -18 15 9 44 26 27 31 29 58 19 16 -6 29 -14 29 -17z m-245 -42
c30 -14 30 -14 5 -55 -19 -32 -20 -32 -52 -19 -40 17 -45 29 -24 61 18 28 33
31 71 13z m350 -2 c18 -13 18 -14 -6 -44 -24 -31 -46 -34 -77 -9 -10 8 -7 16
14 39 31 32 42 34 69 14z m-224 -56 c23 -13 24 -22 2 -58 -17 -27 -19 -28 -50
-15 l-33 13 17 35 c17 37 31 42 64 25z m343 4 c21 -8 20 -24 -3 -51 -21 -25
-42 -29 -73 -12 -20 11 -19 11 8 40 28 30 40 34 68 23z m634 -33 c8 -5 12 -17
10 -27 -3 -17 -16 -20 -113 -24 l-109 -5 -48 -109 c-26 -60 -53 -125 -59 -144
-6 -20 -21 -50 -31 -69 -16 -27 -26 -33 -54 -33 -19 0 -34 4 -34 9 0 9 103
249 150 349 l30 62 122 0 c68 0 129 -4 136 -9z m-517 -21 c24 -13 24 -29 -2
-59 -17 -21 -24 -23 -47 -15 -32 11 -34 25 -8 59 21 28 28 30 57 15z m-327
-13 c17 -12 17 -14 -1 -45 -19 -34 -32 -38 -64 -22 -23 13 -24 28 -3 58 17 25
42 28 68 9z m-9 -157 c176 -81 328 -150 338 -153 24 -9 22 -47 -3 -47 -17 0
-119 44 -265 115 -27 13 -140 65 -250 116 -110 50 -202 93 -204 95 -2 2 -1 11
3 20 5 12 13 14 34 9 15 -4 171 -73 347 -155z m145 87 c0 -16 -34 -67 -45 -67
-23 0 -54 31 -48 48 14 39 32 50 64 39 16 -6 29 -15 29 -20z m314 27 c19 -7
20 -24 4 -59 -13 -29 -34 -32 -66 -9 l-22 15 22 30 c22 29 34 34 62 23z m254
-97 c3 -55 2 -57 -23 -57 -23 0 -25 4 -25 41 0 46 16 82 33 76 7 -2 13 -28 15
-60z m120 0 l3 -58 -28 3 c-24 3 -28 8 -31 37 -6 55 5 83 31 79 19 -3 22 -10
25 -61z m-1198 23 c6 -12 10 -40 8 -63 -3 -37 -6 -42 -30 -45 -27 -3 -28 -1
-28 40 0 82 25 115 50 68z m615 4 c23 -15 24 -18 10 -44 -20 -38 -27 -42 -59
-27 -30 14 -32 28 -10 62 19 29 26 30 59 9z m-511 -40 c10 -4 16 -18 16 -40 0
-30 -3 -34 -25 -34 -22 0 -25 4 -25 40 0 40 5 45 34 34z m647 -20 c26 -13 30
-19 24 -42 -11 -47 -25 -53 -72 -31 -24 11 -43 22 -43 25 0 16 36 64 48 64 7
0 27 -7 43 -16z m-527 -39 c19 -14 19 -15 -7 -15 -17 0 -27 5 -27 15 0 19 9
19 34 0z m856 -106 c0 -60 0 -60 -27 -57 -26 3 -28 7 -29 48 0 60 4 70 32 70
23 0 24 -3 24 -61z m118 -2 l3 -58 -28 3 c-25 3 -28 7 -29 43 -2 60 5 77 29
73 19 -3 22 -10 25 -61z m-1192 9 c10 -43 1 -61 -34 -64 -31 -3 -32 -2 -32 36
0 45 5 52 36 52 17 0 25 -7 30 -24z m114 -21 c0 -41 -2 -45 -25 -45 -23 0 -25
4 -25 45 0 41 2 45 25 45 23 0 25 -4 25 -45z m120 0 c0 -41 -2 -45 -25 -45
-14 0 -25 3 -26 8 0 4 -2 16 -4 26 -5 28 12 56 35 56 17 0 20 -7 20 -45z m120
-1 c0 -44 -1 -45 -27 -42 -22 2 -29 9 -31 31 -5 42 4 57 33 57 23 0 25 -3 25
-46z m610 27 c0 -31 -15 -71 -26 -71 -17 0 -17 5 -2 47 11 30 28 45 28 24z
m-515 -13 c17 -7 25 -19 25 -35 0 -21 -4 -24 -27 -21 -23 2 -29 8 -31 36 -4
36 -3 37 33 20z"/>
</g>
</svg>
