<svg version="1.0" xmlns="http://www.w3.org/2000/svg"
 width="627.000000pt" height="174.000000pt" viewBox="0 0 627.000000 174.000000"
 preserveAspectRatio="xMidYMid meet">
<g transform="translate(0.000000,174.000000) scale(0.100000,-0.100000)"
fill="#FFFFFF" stroke="none">
<path d="M470 1325 c-17 -20 -5 -45 20 -45 20 0 21 -3 15 -67 -11 -120 -3
-112 -99 -106 -83 6 -85 5 -90 -18 -8 -39 -46 -555 -48 -669 l-3 -105 767 -3
767 -2 0 147 c1 82 6 169 13 195 15 59 -4 94 -57 104 -27 5 -41 16 -66 55 -45
70 -132 146 -214 185 -65 32 -181 63 -231 64 -12 0 -39 14 -60 31 -146 116
-392 217 -569 233 -38 4 -84 9 -101 12 -20 3 -36 -1 -44 -11z m135 -149 c14
-49 24 -90 23 -91 -8 -7 -83 12 -83 20 2 62 19 175 25 169 5 -5 20 -49 35 -98z
m120 78 c33 -9 70 -18 83 -21 12 -3 22 -9 22 -13 0 -8 -111 -109 -135 -122 -9
-5 -19 15 -35 70 -13 42 -25 83 -27 90 -7 16 18 15 92 -4z m159 -106 c12 -72
18 -138 12 -138 -6 0 -91 27 -146 46 -10 4 4 23 50 64 36 33 68 59 71 60 4 0
9 -15 13 -32z m136 -11 c101 -58 120 -70 120 -79 0 -5 -10 -8 -22 -8 -20 -1
-91 -23 -140 -44 -13 -6 -18 2 -27 46 -20 105 -23 128 -14 128 4 0 42 -19 83
-43z m-472 -94 c24 -4 32 -10 32 -26 0 -25 -79 -496 -87 -517 -3 -8 -31 111
-63 265 -31 154 -55 284 -52 289 4 8 96 2 170 -11z m217 -46 c127 -35 127 -35
60 -98 -32 -30 -73 -76 -91 -104 -19 -27 -34 -43 -34 -34 0 8 -7 69 -15 134
-8 66 -15 121 -15 123 0 5 17 1 95 -21z m616 -15 c31 -10 78 -31 105 -47 48
-28 174 -147 174 -164 0 -5 -35 -11 -77 -13 -65 -3 -86 0 -123 18 -25 12 -67
32 -95 44 -27 12 -88 40 -135 62 -47 22 -106 49 -132 61 -26 12 -48 25 -48 29
0 6 34 19 85 32 39 10 191 -3 246 -22z m-729 -282 c1 -52 -2 -150 -7 -217 l-8
-123 -59 0 c-55 0 -58 1 -53 23 5 23 94 540 96 560 4 37 29 -163 31 -243z
m364 224 c22 -9 90 -40 152 -70 63 -30 116 -54 118 -54 3 0 47 -20 99 -45 71
-33 93 -48 89 -60 -8 -21 -15 -20 -97 19 -40 19 -126 59 -192 89 -143 65 -239
110 -244 113 -7 6 11 24 23 24 8 0 31 -7 52 -16z m-592 -394 c15 -74 29 -143
32 -152 5 -16 -3 -18 -65 -18 l-71 0 0 93 c1 75 24 409 31 427 1 5 29 -124 73
-350z m498 339 c20 -11 20 -11 -3 -35 -25 -27 -40 -30 -69 -12 -19 12 -19 13
2 35 24 26 40 28 70 12z m108 -49 c13 -8 11 -14 -12 -37 -24 -24 -30 -25 -54
-14 l-27 12 23 24 c25 26 45 31 70 15z m-205 -42 c29 -13 31 -20 9 -53 -15
-23 -17 -24 -45 -9 -33 17 -35 22 -13 52 18 26 16 25 49 10z m299 -3 c19 -15
19 -15 -3 -39 -22 -23 -54 -25 -67 -4 -6 9 33 58 45 58 3 0 15 -7 25 -15z
m-171 -55 c5 -4 1 -20 -9 -35 -14 -21 -22 -25 -43 -20 -35 9 -35 9 -16 45 13
25 20 30 38 24 12 -3 26 -10 30 -14z m271 7 c16 -12 17 -16 5 -35 -14 -23 -44
-28 -69 -12 -12 7 -11 13 10 34 27 30 30 31 54 13z m535 -26 c8 -5 11 -16 8
-25 -5 -12 -26 -16 -98 -18 l-92 -3 -61 -145 c-60 -143 -62 -145 -95 -148 -30
-3 -32 -2 -26 20 4 13 18 46 30 73 13 28 35 79 50 115 15 36 36 82 46 103 l19
37 103 0 c56 0 108 -4 116 -9z m-715 -24 c15 -11 16 -17 5 -40 -13 -29 -14
-30 -46 -21 -26 7 -29 25 -11 54 15 23 27 25 52 7z m293 -3 c3 -9 -3 -24 -15
-37 -18 -18 -25 -19 -48 -8 l-27 12 23 24 c27 28 58 33 67 9z m-503 -35 c50
-23 132 -61 181 -84 121 -57 286 -131 308 -138 18 -7 23 -32 8 -42 -6 -3 -43
10 -83 29 -122 57 -220 102 -283 131 -33 15 -93 42 -132 61 -40 19 -77 34 -82
34 -14 0 -33 28 -26 40 9 14 8 14 109 -31z m606 -20 c0 -19 -21 -49 -33 -49
-7 0 -22 6 -33 14 -19 14 -19 15 5 40 19 20 28 23 42 15 11 -5 19 -14 19 -20z
m-295 11 c26 -10 26 -10 8 -40 -19 -33 -29 -36 -54 -17 -16 12 -15 31 4 55 11
15 9 14 42 2z m495 -60 c0 -22 0 -43 0 -47 1 -5 -8 -9 -20 -11 -17 -3 -20 2
-20 31 0 45 9 67 26 67 10 0 14 -12 14 -40z m103 28 c-2 -5 -3 -26 -3 -48 0
-33 -4 -40 -19 -40 -15 0 -20 9 -23 46 -2 25 -1 48 1 50 8 8 46 0 44 -8z
m-1003 -63 c0 -48 -3 -55 -19 -55 -28 0 -33 14 -25 65 5 35 10 45 25 45 16 0
19 -8 19 -55z m520 45 c13 -8 13 -13 -2 -37 -20 -34 -29 -37 -53 -19 -17 12
-18 17 -7 40 12 27 36 33 62 16z m-436 -36 c10 -4 16 -18 16 -36 0 -25 -4 -29
-22 -26 -18 2 -24 11 -26 36 -3 32 3 37 32 26z m566 -37 c0 -7 -18 -46 -25
-55 -5 -6 -75 32 -75 40 0 5 7 20 16 33 15 23 16 24 50 8 19 -9 34 -21 34 -26z
m-464 -12 c18 -15 18 -15 -5 -13 -14 2 -26 9 -29 16 -5 17 10 15 34 -3z m719
-85 c-1 -41 -3 -45 -25 -45 -22 0 -25 4 -25 40 -1 51 2 57 28 53 19 -3 22 -9
22 -48z m97 4 c3 -47 -7 -62 -35 -51 -8 3 -11 20 -9 51 3 36 8 46 22 46 14 0
19 -10 22 -46z m-1002 -19 c0 -31 -3 -35 -25 -35 -22 0 -25 4 -25 35 0 31 3
35 25 35 22 0 25 -4 25 -35z m100 -4 c0 -35 -2 -38 -25 -33 -21 4 -25 10 -25
38 0 30 3 34 25 34 22 0 25 -4 25 -39z m100 4 c0 -31 -3 -35 -25 -35 -22 0
-25 4 -25 35 0 31 3 35 25 35 22 0 25 -4 25 -35z m100 0 c0 -31 -3 -35 -25
-35 -22 0 -25 4 -25 35 0 31 3 35 25 35 22 0 25 -4 25 -35z m504 -9 c-3 -14
-13 -26 -21 -26 -11 0 -13 5 -8 18 4 9 10 25 12 35 9 29 25 3 17 -27z m-404
-8 c0 -13 -7 -18 -25 -18 -21 0 -25 5 -25 30 0 28 1 29 25 18 14 -6 25 -19 25
-30z"/>
<path d="M4712 1296 c-53 -17 -89 -40 -125 -80 -46 -51 -60 -87 -65 -166 -4
-63 -1 -85 18 -128 53 -124 195 -187 334 -150 42 11 45 11 69 -17 l25 -29 40
34 c22 19 41 39 41 44 1 6 -9 20 -20 32 l-21 23 26 52 c34 69 36 171 6 234
-59 123 -207 190 -328 151z m148 -125 c51 -27 80 -74 80 -132 0 -52 -7 -79
-21 -79 -5 0 -23 16 -40 35 -17 19 -36 35 -42 35 -14 0 -77 -61 -77 -74 0 -6
15 -25 33 -44 l32 -34 -53 4 c-83 8 -132 65 -132 156 0 115 119 187 220 133z"/>
<path d="M2215 1287 c-3 -7 -4 -125 -3 -262 l3 -250 125 -3 c147 -3 195 10
237 64 20 27 26 46 27 89 0 47 -4 59 -28 84 l-28 30 22 46 c39 80 13 150 -70
193 -39 19 -60 22 -162 22 -87 0 -120 -3 -123 -13z m245 -128 c9 -16 8 -26 -5
-45 -13 -20 -24 -24 -65 -24 l-50 0 0 45 0 45 55 0 c45 0 56 -4 65 -21z m6
-190 c21 -17 18 -66 -5 -79 -11 -5 -42 -10 -70 -10 l-51 0 0 54 0 53 56 -3
c31 -2 62 -8 70 -15z"/>
<path d="M2687 1293 c-4 -3 -7 -123 -7 -265 l0 -258 60 0 60 0 0 265 0 265
-53 0 c-30 0 -57 -3 -60 -7z"/>
<path d="M2910 1035 l0 -265 60 0 59 0 3 147 3 147 65 -107 c36 -59 68 -107
72 -107 3 0 35 47 69 105 34 58 65 102 68 99 3 -3 7 -67 7 -142 l1 -137 59 0
59 0 0 260 0 260 -53 3 c-30 2 -59 -2 -66 -8 -7 -5 -42 -57 -77 -115 -34 -58
-65 -105 -68 -105 -3 0 -37 52 -76 115 l-70 115 -57 0 -58 0 0 -265z"/>
<path d="M3675 1290 c-9 -15 -175 -499 -175 -511 0 -5 29 -9 65 -9 l64 0 11
40 11 40 99 0 99 0 12 -40 12 -40 64 0 c44 0 63 4 63 13 0 7 -24 82 -53 167
-30 85 -68 199 -86 253 l-33 97 -73 0 c-41 0 -77 -5 -80 -10z m105 -222 c33
-104 33 -101 -27 -102 -38 -1 -53 3 -53 12 0 24 43 162 50 162 4 0 18 -33 30
-72z"/>
<path d="M4070 1035 l0 -265 60 0 60 0 0 85 0 85 29 0 c26 0 34 -9 76 -85 l48
-85 63 0 64 0 -12 28 c-7 15 -17 34 -23 42 -7 8 -25 38 -40 66 l-28 51 41 42
c60 62 68 145 19 216 -47 68 -91 83 -239 84 l-118 1 0 -265z m254 123 c22 -31
20 -64 -4 -88 -15 -15 -33 -20 -75 -20 l-55 0 0 65 0 65 59 0 c51 0 62 -3 75
-22z"/>
<path d="M5122 1243 l3 -58 85 -2 c47 -1 89 -2 93 -2 5 -1 -13 -28 -38 -61
l-47 -61 27 -34 c20 -27 33 -35 57 -35 51 0 77 -59 42 -94 -25 -26 -91 -21
-117 8 l-22 25 -47 -26 c-27 -15 -48 -32 -48 -39 0 -7 16 -28 35 -47 88 -85
253 -71 310 28 45 76 30 155 -41 213 l-36 30 41 54 c36 48 41 61 41 106 l0 52
-170 0 -171 0 3 -57z"/>
<path d="M5564 1286 c-3 -7 -4 -125 -2 -262 l3 -249 124 -3 c152 -3 205 11
266 73 76 75 97 202 51 300 -32 69 -100 128 -166 143 -74 17 -269 16 -276 -2z
m283 -126 c49 -29 66 -62 64 -126 -2 -107 -46 -147 -157 -142 l-65 3 0 135 c0
74 0 138 0 143 1 4 29 7 64 7 44 0 71 -6 94 -20z"/>
<path d="M2841 580 c-6 -14 -5 -213 2 -217 4 -2 7 18 7 44 0 57 21 93 54 93
29 0 36 -16 36 -86 0 -30 5 -54 10 -54 6 0 10 28 10 63 0 81 -19 104 -74 89
l-35 -10 -4 41 c-2 23 -4 40 -6 37z"/>
<path d="M3050 565 c0 -8 5 -15 10 -15 6 0 10 7 10 15 0 8 -4 15 -10 15 -5 0
-10 -7 -10 -15z"/>
<path d="M4574 557 c-22 -19 -26 -29 -20 -51 4 -15 12 -28 19 -30 79 -23 107
-39 107 -62 0 -36 -52 -44 -114 -19 -14 6 -18 5 -14 -6 6 -20 73 -35 105 -23
34 12 47 35 39 67 -5 22 -16 29 -61 42 -58 17 -77 43 -54 71 13 16 65 16 102
0 9 -5 17 -4 17 1 0 13 -45 33 -75 33 -13 0 -36 -10 -51 -23z"/>
<path d="M5259 533 c-1 -27 -1 -62 0 -80 5 -64 -44 -97 -83 -57 -39 38 -3 113
49 100 14 -4 25 -2 25 3 0 15 -49 22 -70 11 -38 -20 -50 -67 -29 -114 14 -29
58 -42 88 -26 14 7 21 7 21 0 0 -5 5 -10 10 -10 6 0 10 43 10 110 0 67 -4 110
-10 110 -5 0 -11 -21 -11 -47z"/>
<path d="M5370 565 c0 -9 5 -15 11 -13 6 2 11 8 11 13 0 5 -5 11 -11 13 -6 2
-11 -4 -11 -13z"/>
<path d="M2259 470 c-23 -55 -40 -103 -36 -106 3 -3 13 8 22 25 14 29 19 31
70 31 51 0 56 -2 70 -31 9 -17 19 -28 22 -25 9 9 -79 206 -92 206 -7 0 -32
-45 -56 -100z m99 -25 c-2 -2 -22 -5 -45 -9 -50 -6 -51 -3 -21 66 l22 51 23
-53 c13 -29 22 -54 21 -55z"/>
<path d="M3177 554 c-4 -4 -7 -16 -7 -26 0 -10 -6 -18 -12 -18 -10 0 -9 -3 1
-9 8 -5 14 -30 16 -63 1 -30 5 -60 9 -66 9 -14 56 -16 56 -2 0 6 -9 10 -20 10
-23 0 -33 30 -28 81 2 26 9 35 28 40 l25 6 -25 4 c-15 3 -26 12 -30 27 -3 13
-8 20 -13 16z"/>
<path d="M3727 554 c-4 -4 -7 -15 -7 -25 0 -10 -8 -20 -17 -22 -17 -4 -17 -5
0 -6 13 -1 17 -10 17 -45 0 -61 15 -96 40 -96 26 0 26 16 -1 23 -18 5 -20 12
-17 58 3 47 6 54 28 60 l25 6 -25 4 c-15 3 -26 12 -30 27 -3 13 -8 20 -13 16z"/>
<path d="M4800 550 c-1 -8 -2 -19 -1 -23 1 -4 -6 -10 -15 -14 -11 -4 -12 -8
-4 -13 7 -4 12 -27 12 -50 -1 -62 13 -90 43 -90 31 0 33 17 3 22 -20 3 -23 10
-26 61 -3 56 -3 57 25 58 28 1 28 1 3 8 -14 4 -27 17 -31 31 -4 14 -8 18 -9
10z"/>
<path d="M2532 504 c-12 -8 -22 -10 -22 -5 0 6 -4 11 -10 11 -6 0 -10 -30 -10
-69 0 -39 5 -73 10 -76 6 -4 10 14 10 48 0 54 18 87 48 87 7 0 12 5 12 10 0
14 -12 12 -38 -6z"/>
<path d="M2672 510 c-43 -18 -52 -91 -15 -132 16 -18 48 -23 77 -12 28 11 17
24 -14 17 -58 -11 -89 45 -54 96 14 19 22 22 50 16 38 -7 47 9 12 19 -28 7
-27 7 -56 -4z"/>
<path d="M3336 499 c-35 -28 -38 -100 -4 -123 23 -17 55 -20 82 -10 29 11 16
23 -19 17 -39 -6 -65 9 -65 38 0 16 8 19 55 19 63 0 71 15 30 55 -29 30 -45
31 -79 4z m74 -19 c9 -17 7 -20 -12 -22 -30 -2 -61 1 -66 7 -3 2 1 11 8 20 18
21 57 19 70 -5z"/>
<path d="M3553 508 c-26 -12 -47 -66 -37 -94 17 -47 54 -65 98 -48 27 10 18
19 -21 19 -31 0 -40 5 -51 28 -11 22 -11 32 0 55 12 23 20 27 51 26 41 -1 50
10 15 20 -28 7 -28 7 -55 -6z"/>
<path d="M4117 509 c-9 -5 -22 -7 -27 -4 -6 4 -10 -23 -10 -71 0 -89 17 -92
22 -4 2 46 7 57 26 65 12 5 22 13 22 17 0 11 -11 10 -33 -3z"/>
<path d="M4247 500 c-21 -17 -27 -30 -27 -59 0 -20 6 -45 13 -54 17 -25 77
-32 102 -13 19 14 17 14 -22 9 -47 -6 -73 7 -73 38 0 16 8 19 55 19 46 0 55 3
55 18 -1 50 -61 75 -103 42z m73 -15 c17 -21 7 -28 -35 -28 -19 0 -38 3 -41 6
-12 11 17 37 41 37 12 0 28 -7 35 -15z"/>
<path d="M5506 499 c-20 -16 -26 -29 -26 -60 0 -64 49 -97 101 -68 48 25 43
120 -8 140 -33 12 -37 12 -67 -12z m80 -24 c23 -35 11 -83 -23 -91 -36 -9 -57
7 -61 45 -6 62 52 94 84 46z"/>
<path d="M3056 488 c-9 -36 -7 -116 4 -123 6 -4 10 22 10 69 0 79 -3 92 -14
54z"/>
<path d="M3860 463 c0 -27 3 -58 6 -71 8 -27 46 -39 80 -23 18 8 24 8 24 -2 0
-9 2 -9 8 0 4 7 7 38 5 70 -2 76 -2 73 -10 73 -5 0 -8 -19 -7 -42 2 -65 -10
-88 -45 -88 -34 0 -41 13 -41 81 0 27 -4 49 -10 49 -5 0 -10 -21 -10 -47z"/>
<path d="M4930 457 c0 -82 36 -116 91 -87 13 8 19 7 19 0 0 -6 4 -9 10 -5 10
6 8 131 -3 141 -4 4 -7 -14 -7 -40 0 -63 -13 -86 -49 -86 -34 0 -41 14 -41 81
0 27 -4 49 -10 49 -5 0 -10 -24 -10 -53z"/>
<path d="M5376 494 c-10 -26 -7 -122 4 -129 6 -4 10 22 10 69 0 77 -3 89 -14
60z"/>
</g>
</svg>
